<?xml version="1.0" encoding="UTF-8" standalone="no"?>
<!DOCTYPE svg PUBLIC "-//W3C//DTD SVG 1.1//EN"
 "http://www.w3.org/Graphics/SVG/1.1/DTD/svg11.dtd">
<!-- Generated by graphviz version 2.49.3 (20211023.0002)
 -->
<!-- Title: Module Pages: 1 -->
<svg width="730pt" height="309pt"
 viewBox="0.00 0.00 729.78 309.00" xmlns="http://www.w3.org/2000/svg" xmlns:xlink="http://www.w3.org/1999/xlink">
<g id="graph0" class="graph" transform="scale(1 1) rotate(0) translate(4 305)">
<title>Module</title>
<polygon fill="white" stroke="transparent" points="-4,4 -4,-305 725.78,-305 725.78,4 -4,4"/>
<!-- (0 &#45;&gt; 0) -->
<g id="node1" class="node">
<title>(0 &#45;&gt; 0)</title>
<polygon fill="none" stroke="black" points="168.28,-264.5 168.28,-300.5 227.28,-300.5 227.28,-264.5 168.28,-264.5"/>
<text text-anchor="middle" x="197.78" y="-278.8" font-family="Times New Roman,serif" font-size="14.00">(0 &#45;&gt; 0)</text>
</g>
<!-- (1 &#45;&gt; 0) -->
<g id="node2" class="node">
<title>(1 &#45;&gt; 0)</title>
<polygon fill="none" stroke="black" points="60.28,-176.5 60.28,-212.5 119.28,-212.5 119.28,-176.5 60.28,-176.5"/>
<text text-anchor="middle" x="89.78" y="-190.8" font-family="Times New Roman,serif" font-size="14.00">(1 &#45;&gt; 0)</text>
</g>
<!-- (0 &#45;&gt; 0)&#45;&gt;(1 &#45;&gt; 0) -->
<g id="edge1" class="edge">
<title>(0 &#45;&gt; 0)&#45;&gt;(1 &#45;&gt; 0)</title>
<path fill="none" stroke="blue" d="M168.09,-279.25C126.4,-275.41 53.81,-265.97 37.78,-246 28.72,-234.7 38.32,-223.35 51.63,-214.29"/>
<polygon fill="blue" stroke="blue" points="53.6,-217.19 60.27,-208.95 49.92,-211.23 53.6,-217.19"/>
<text text-anchor="middle" x="80.28" y="-234.8" font-family="Times New Roman,serif" font-size="14.00">(((1 &#45;&gt; 0)),1,())</text>
</g>
<!-- (0 &#45;&gt; 1) -->
<g id="node4" class="node">
<title>(0 &#45;&gt; 1)</title>
<polygon fill="none" stroke="black" points="168.28,-0.5 168.28,-36.5 227.28,-36.5 227.28,-0.5 168.28,-0.5"/>
<text text-anchor="middle" x="197.78" y="-14.8" font-family="Times New Roman,serif" font-size="14.00">(0 &#45;&gt; 1)</text>
</g>
<!-- (0 &#45;&gt; 0)&#45;&gt;(0 &#45;&gt; 1) -->
<g id="edge10" class="edge">
<title>(0 &#45;&gt; 0)&#45;&gt;(0 &#45;&gt; 1)</title>
<path fill="none" stroke="blue" d="M222.73,-264.48C228.41,-259.27 233.68,-253.03 236.78,-246 245.36,-226.59 245.36,-74.41 236.78,-55 235.04,-51.04 232.6,-47.34 229.8,-43.93"/>
<polygon fill="blue" stroke="blue" points="232.17,-41.34 222.73,-36.52 227.1,-46.17 232.17,-41.34"/>
<text text-anchor="middle" x="286.28" y="-146.8" font-family="Times New Roman,serif" font-size="14.00">((),1,((0 &#45;&gt; 1)))</text>
</g>
<!-- (1 &#45;&gt; 0)&#45;&gt;(0 &#45;&gt; 0) -->
<g id="edge11" class="edge">
<title>(1 &#45;&gt; 0)&#45;&gt;(0 &#45;&gt; 0)</title>
<path fill="none" stroke="blue" d="M107.41,-212.51C118.18,-222.62 132.41,-235.48 145.78,-246 151.21,-250.27 157.13,-254.59 162.96,-258.68"/>
<polygon fill="blue" stroke="blue" points="161.15,-261.69 171.37,-264.47 165.12,-255.92 161.15,-261.69"/>
<text text-anchor="middle" x="191.28" y="-234.8" font-family="Times New Roman,serif" font-size="14.00">(((0 &#45;&gt; 1)),u0,())</text>
</g>
<!-- (1 &#45;&gt; 1) -->
<g id="node3" class="node">
<title>(1 &#45;&gt; 1)</title>
<polygon fill="none" stroke="black" points="60.28,-88.5 60.28,-124.5 119.28,-124.5 119.28,-88.5 60.28,-88.5"/>
<text text-anchor="middle" x="89.78" y="-102.8" font-family="Times New Roman,serif" font-size="14.00">(1 &#45;&gt; 1)</text>
</g>
<!-- (1 &#45;&gt; 0)&#45;&gt;(1 &#45;&gt; 1) -->
<g id="edge3" class="edge">
<title>(1 &#45;&gt; 0)&#45;&gt;(1 &#45;&gt; 1)</title>
<path fill="none" stroke="blue" d="M60.14,-189.73C40.55,-185.52 16.27,-176.66 3.78,-158 -10.64,-136.44 21.28,-122.82 50.24,-115.23"/>
<polygon fill="blue" stroke="blue" points="51.38,-118.55 60.28,-112.79 49.73,-111.75 51.38,-118.55"/>
<text text-anchor="middle" x="49.28" y="-146.8" font-family="Times New Roman,serif" font-size="14.00">((),u0,((0 &#45;&gt; 1)))</text>
</g>
<!-- (1 &#45;&gt; 1)&#45;&gt;(1 &#45;&gt; 0) -->
<g id="edge5" class="edge">
<title>(1 &#45;&gt; 1)&#45;&gt;(1 &#45;&gt; 0)</title>
<path fill="none" stroke="blue" d="M92.71,-124.78C93.56,-130.56 94.37,-137.04 94.78,-143 95.31,-150.53 94.93,-158.67 94.18,-166.17"/>
<polygon fill="blue" stroke="blue" points="90.69,-165.87 92.94,-176.23 97.64,-166.73 90.69,-165.87"/>
<text text-anchor="middle" x="138.28" y="-146.8" font-family="Times New Roman,serif" font-size="14.00">((),1,((1 &#45;&gt; 0)))</text>
</g>
<!-- (1 &#45;&gt; 1)&#45;&gt;(0 &#45;&gt; 1) -->
<g id="edge2" class="edge">
<title>(1 &#45;&gt; 1)&#45;&gt;(0 &#45;&gt; 1)</title>
<path fill="none" stroke="blue" d="M60.27,-92.05C43.11,-82.36 26.84,-68.64 37.78,-55 52.59,-36.55 115.67,-27.09 158.06,-22.73"/>
<polygon fill="blue" stroke="blue" points="158.48,-26.2 168.09,-21.75 157.8,-19.23 158.48,-26.2"/>
<text text-anchor="middle" x="80.28" y="-58.8" font-family="Times New Roman,serif" font-size="14.00">(((0 &#45;&gt; 1)),1,())</text>
</g>
<!-- (0 &#45;&gt; 1)&#45;&gt;(0 &#45;&gt; 0) -->
<g id="edge8" class="edge">
<title>(0 &#45;&gt; 1)&#45;&gt;(0 &#45;&gt; 0)</title>
<path fill="none" stroke="blue" d="M227.3,-31.19C274.16,-51.76 358.2,-98 336.78,-158 319.8,-205.59 303.88,-213.98 264.78,-246 256.29,-252.95 246.23,-259.14 236.52,-264.33"/>
<polygon fill="blue" stroke="blue" points="234.7,-261.33 227.37,-268.98 237.87,-267.56 234.7,-261.33"/>
<text text-anchor="middle" x="386.28" y="-146.8" font-family="Times New Roman,serif" font-size="14.00">((),u0,((1 &#45;&gt; 0)))</text>
</g>
<!-- (0 &#45;&gt; 1)&#45;&gt;(1 &#45;&gt; 1) -->
<g id="edge9" class="edge">
<title>(0 &#45;&gt; 1)&#45;&gt;(1 &#45;&gt; 1)</title>
<path fill="none" stroke="blue" d="M171.37,-36.53C163.02,-42.17 153.86,-48.65 145.78,-55 135.33,-63.22 124.36,-72.87 114.93,-81.51"/>
<polygon fill="blue" stroke="blue" points="112.36,-79.12 107.41,-88.49 117.12,-84.25 112.36,-79.12"/>
<text text-anchor="middle" x="191.28" y="-58.8" font-family="Times New Roman,serif" font-size="14.00">(((1 &#45;&gt; 0)),u0,())</text>
</g>
<!-- (1 &#45;&gt; 0, 0 &#45;&gt; 1) -->
<g id="node5" class="node">
<title>(1 &#45;&gt; 0, 0 &#45;&gt; 1)</title>
<polygon fill="none" stroke="black" points="413.28,-264.5 413.28,-300.5 514.28,-300.5 514.28,-264.5 413.28,-264.5"/>
<text text-anchor="middle" x="463.78" y="-278.8" font-family="Times New Roman,serif" font-size="14.00">(1 &#45;&gt; 0, 0 &#45;&gt; 1)</text>
</g>
<!-- (1 &#45;&gt; 1, 0 &#45;&gt; 0) -->
<g id="node6" class="node">
<title>(1 &#45;&gt; 1, 0 &#45;&gt; 0)</title>
<polygon fill="none" stroke="black" points="413.28,-176.5 413.28,-212.5 514.28,-212.5 514.28,-176.5 413.28,-176.5"/>
<text text-anchor="middle" x="463.78" y="-190.8" font-family="Times New Roman,serif" font-size="14.00">(1 &#45;&gt; 1, 0 &#45;&gt; 0)</text>
</g>
<!-- (1 &#45;&gt; 0, 0 &#45;&gt; 1)&#45;&gt;(1 &#45;&gt; 1, 0 &#45;&gt; 0) -->
<g id="edge4" class="edge">
<title>(1 &#45;&gt; 0, 0 &#45;&gt; 1)&#45;&gt;(1 &#45;&gt; 1, 0 &#45;&gt; 0)</title>
<path fill="none" stroke="black" d="M413.12,-265.08C405.03,-260.21 397.71,-253.97 392.78,-246 385.55,-234.29 392.43,-224.53 404.3,-216.8"/>
<polygon fill="black" stroke="black" points="406.22,-219.74 413.21,-211.78 402.78,-213.64 406.22,-219.74"/>
<text text-anchor="middle" x="417.28" y="-234.8" font-family="Times New Roman,serif" font-size="14.00">((),u0,())</text>
</g>
<!-- (1 &#45;&gt; 1, 0 &#45;&gt; 0)&#45;&gt;(1 &#45;&gt; 0, 0 &#45;&gt; 1) -->
<g id="edge6" class="edge">
<title>(1 &#45;&gt; 1, 0 &#45;&gt; 0)&#45;&gt;(1 &#45;&gt; 0, 0 &#45;&gt; 1)</title>
<path fill="none" stroke="blue" d="M463.78,-212.58C463.78,-224.36 463.78,-240.27 463.78,-253.84"/>
<polygon fill="blue" stroke="blue" points="460.28,-254.1 463.78,-264.1 467.28,-254.1 460.28,-254.1"/>
<text text-anchor="middle" x="526.78" y="-234.8" font-family="Times New Roman,serif" font-size="14.00">((),1,((1 &#45;&gt; 0, 0 &#45;&gt; 1)))</text>
</g>
<!-- (1 &#45;&gt; 1, 0 &#45;&gt; 0)&#45;&gt;(1 &#45;&gt; 0, 0 &#45;&gt; 1) -->
<g id="edge7" class="edge">
<title>(1 &#45;&gt; 1, 0 &#45;&gt; 0)&#45;&gt;(1 &#45;&gt; 0, 0 &#45;&gt; 1)</title>
<path fill="none" stroke="blue" d="M514.56,-198.86C559.19,-203.83 613.74,-216.06 590.78,-246 573.71,-268.27 556.81,-258.02 524.53,-264.25"/>
<polygon fill="blue" stroke="blue" points="523.43,-260.92 514.5,-266.62 525.04,-267.73 523.43,-260.92"/>
<text text-anchor="middle" x="658.78" y="-234.8" font-family="Times New Roman,serif" font-size="14.00">(((1 &#45;&gt; 0, 0 &#45;&gt; 1)),1,())</text>
</g>
<!-- () -->
<g id="node7" class="node">
<title>()</title>
<polygon fill="none" stroke="black" points="532.78,-264.5 532.78,-300.5 586.78,-300.5 586.78,-264.5 532.78,-264.5"/>
<text text-anchor="middle" x="559.78" y="-278.8" font-family="Times New Roman,serif" font-size="14.00">()</text>
</g>
</g>
</svg>
